<svg xmlns:svg="http://www.w3.org/2000/svg" viewBox="0 0 225 225" onload="init(evt)">
   <style>
   	 .gear{
   	 	stroke: #784f33;
   	 	fill:	#b59154;
   	 }
   </style>

  <script type="text/ecmascript"><![CDATA[
        var svg;

	function init(evt) {
          if (window.svgDocument == null) {
            svg = evt.target.ownerDocument;
          }
		addRotateTransform('gear-1', 12, 1);
		addRotateTransform('gear-2', 16, -1);
		addRotateTransform('gear-3', 16, -1);
		addRotateTransform('gear-4', 4, 1);
	}

	function addRotateTransform(target_id, speed, direction) {
		var element_to_rotate = svg.getElementById(target_id);
		var my_transform = svg.createElementNS("http://www.w3.org/2000/svg", "animateTransform");

		var bb = element_to_rotate.getBBox();
		var cx = bb.x + bb.width/2;
		var cy = bb.y + bb.height/2;

		my_transform.setAttributeNS(null, "attributeName", "transform");
		my_transform.setAttributeNS(null, "type", "rotate");
		my_transform.setAttributeNS(null, "dur", speed + "s");
		my_transform.setAttributeNS(null, "repeatCount", "indefinite");
		my_transform.setAttributeNS(null, "from", "0 "+cx+" "+cy);
		my_transform.setAttributeNS(null, "to", 360*direction+" "+cx+" "+cy);

		element_to_rotate.appendChild(my_transform);
		my_transform.beginElement();
	}
  ]]></script>

  <g transform="translate(132, 84)">  
    <path
       id="gear-3"
       class="gear"
       d="m 73.156,-2.845 0.58,-0.023 2.617,0.368 3.21,0.999 0,3.002 -3.21,0.999 -2.617,0.368 -0.58,-0.023 -0.255,3.883 0.578,0.053 2.548,0.707 3.052,1.409 -0.392,2.977 -3.313,0.57 -2.644,0.024 -0.571,-0.098 -0.759,3.816 0.565,0.128 2.434,1.033 2.842,1.795 -0.777,2.901 -3.359,0.133 -2.624,-0.322 -0.554,-0.171 -1.251,3.684 0.544,0.201 2.278,1.342 2.583,2.151 -1.149,2.774 -3.347,-0.307 -2.56,-0.661 -0.527,-0.243 -1.72,3.49 0.513,0.27 2.083,1.628 2.28,2.47 -1.501,2.6 -3.279,-0.741 -2.451,-0.99 -0.491,-0.309 -2.161,3.235 0.473,0.335 1.853,1.886 1.939,2.746 -1.828,2.382 -3.154,-1.162 -2.302,-1.301 -0.446,-0.371 -2.565,2.925 0.426,0.394 1.591,2.112 1.563,2.975 -2.123,2.123 -2.975,-1.563 -2.112,-1.591 -0.394,-0.426 -2.925,2.565 0.371,0.446 1.301,2.302 1.162,3.154 -2.382,1.828 -2.746,-1.939 -1.886,-1.853 -0.335,-0.473 -3.235,2.161 0.309,0.491 0.99,2.451 0.741,3.279 -2.6,1.501 -2.47,-2.28 -1.628,-2.083 -0.27,-0.513 -3.49,1.72 0.243,0.527 0.661,2.56 0.307,3.347 -2.774,1.149 -2.151,-2.583 -1.342,-2.278 -0.201,-0.544 -3.684,1.251 0.171,0.554 0.322,2.624 -0.133,3.359 -2.901,0.777 -1.795,-2.842 -1.033,-2.434 -0.128,-0.565 -3.816,0.759 0.098,0.571 -0.024,2.644 -0.57,3.313 -2.977,0.392 -1.409,-3.052 -0.707,-2.548 -0.053,-0.578 -3.883,0.255 0.023,0.58 -0.368,2.617 -0.999,3.21 -3.002,0 -0.999,-3.21 -0.368,-2.617 0.023,-0.58 -3.883,-0.255 -0.053,0.578 -0.707,2.548 -1.409,3.052 -2.977,-0.392 -0.57,-3.313 -0.024,-2.644 0.098,-0.571 -3.816,-0.759 -0.128,0.565 -1.033,2.434 -1.795,2.842 -2.901,-0.777 -0.133,-3.359 0.322,-2.624 0.171,-0.554 -3.684,-1.251 -0.201,0.544 -1.342,2.278 -2.151,2.583 -2.774,-1.149 0.307,-3.347 0.661,-2.56 0.243,-0.527 -3.49,-1.72 -0.27,0.513 -1.628,2.083 -2.47,2.28 -2.6,-1.501 0.741,-3.279 0.99,-2.451 0.309,-0.491 -3.235,-2.161 -0.335,0.473 -1.886,1.853 -2.746,1.939 -2.382,-1.828 1.162,-3.154 1.301,-2.302 0.371,-0.446 -2.925,-2.565 -0.394,0.426 -2.112,1.591 -2.975,1.563 -2.123,-2.123 1.563,-2.975 1.591,-2.112 0.426,-0.394 -2.565,-2.925 -0.446,0.371 -2.302,1.301 -3.154,1.162 -1.828,-2.382 1.939,-2.746 1.853,-1.886 0.473,-0.335 -2.161,-3.235 -0.491,0.309 -2.451,0.99 -3.279,0.741 -1.501,-2.6 2.28,-2.47 2.083,-1.628 0.513,-0.27 -1.72,-3.49 -0.527,0.243 -2.56,0.661 -3.347,0.307 -1.149,-2.774 2.583,-2.151 2.278,-1.342 0.544,-0.201 -1.251,-3.684 -0.554,0.171 -2.624,0.322 -3.359,-0.133 -0.777,-2.901 2.842,-1.795 2.434,-1.033 0.565,-0.128 -0.759,-3.816 -0.571,0.098 -2.644,-0.024 -3.313,-0.57 -0.392,-2.977 3.052,-1.409 2.548,-0.707 0.578,-0.053 -0.255,-3.883 -0.58,0.023 -2.617,-0.368 -3.21,-0.999 0,-3.002 3.21,-0.999 2.617,-0.368 0.58,0.023 0.255,-3.883 -0.578,-0.053 -2.548,-0.707 -3.052,-1.409 0.392,-2.977 3.313,-0.57 2.644,-0.024 0.571,0.098 0.759,-3.816 -0.565,-0.128 -2.434,-1.033 -2.842,-1.795 0.777,-2.901 3.359,-0.133 2.624,0.322 0.554,0.171 1.251,-3.684 -0.544,-0.201 -2.278,-1.342 -2.583,-2.151 1.149,-2.774 3.347,0.307 2.56,0.661 0.527,0.243 1.72,-3.49 -0.513,-0.27 -2.083,-1.628 -2.28,-2.47 1.501,-2.6 3.279,0.741 2.451,0.99 0.491,0.309 2.161,-3.235 -0.473,-0.335 -1.853,-1.886 -1.939,-2.746 1.828,-2.382 3.154,1.162 2.302,1.301 0.446,0.371 2.565,-2.925 -0.426,-0.394 -1.591,-2.112 -1.563,-2.975 2.123,-2.123 2.975,1.563 2.112,1.591 0.394,0.426 2.925,-2.565 -0.371,-0.446 -1.301,-2.302 -1.162,-3.154 2.382,-1.828 2.746,1.939 1.886,1.853 0.335,0.473 3.235,-2.161 -0.309,-0.491 -0.99,-2.451 -0.741,-3.279 2.6,-1.501 2.47,2.28 1.628,2.083 0.27,0.513 3.49,-1.72 -0.243,-0.527 -0.661,-2.56 -0.307,-3.347 2.774,-1.149 2.151,2.583 1.342,2.278 0.201,0.544 3.684,-1.251 -0.171,-0.554 -0.322,-2.624 0.133,-3.359 2.901,-0.777 1.795,2.842 1.033,2.434 0.128,0.565 3.816,-0.759 -0.098,-0.571 0.024,-2.644 0.57,-3.313 2.977,-0.392 1.409,3.052 0.707,2.548 0.053,0.578 3.883,-0.255 -0.023,-0.58 0.368,-2.617 0.999,-3.21 3.002,0 0.999,3.21 0.368,2.617 -0.023,0.58 3.883,0.255 0.053,-0.578 0.707,-2.548 1.409,-3.052 2.977,0.392 0.57,3.313 0.024,2.644 -0.098,0.571 3.816,0.759 0.128,-0.565 1.033,-2.434 1.795,-2.842 2.901,0.777 0.133,3.359 -0.322,2.624 -0.171,0.554 3.684,1.251 0.201,-0.544 1.342,-2.278 2.151,-2.583 2.774,1.149 -0.307,3.347 -0.661,2.56 -0.243,0.527 3.49,1.72 0.27,-0.513 1.628,-2.083 2.47,-2.28 2.6,1.501 -0.741,3.279 -0.99,2.451 -0.309,0.491 3.235,2.161 0.335,-0.473 1.886,-1.853 2.746,-1.939 2.382,1.828 -1.162,3.154 -1.301,2.302 -0.371,0.446 2.925,2.565 0.394,-0.426 2.112,-1.591 2.975,-1.563 2.123,2.123 -1.563,2.975 -1.591,2.112 -0.426,0.394 2.565,2.925 0.446,-0.371 2.302,-1.301 3.154,-1.162 1.828,2.382 -1.939,2.746 -1.853,1.886 -0.473,0.335 2.161,3.235 0.491,-0.309 2.451,-0.99 3.279,-0.741 1.501,2.6 -2.28,2.47 -2.083,1.628 -0.513,0.27 1.72,3.49 0.527,-0.243 2.56,-0.661 3.347,-0.307 1.149,2.774 -2.583,2.151 -2.278,1.342 -0.544,0.201 1.251,3.684 0.554,-0.171 2.624,-0.322 3.359,0.133 0.777,2.901 -2.842,1.795 -2.434,1.033 -0.565,0.128 0.759,3.816 0.571,-0.098 2.644,0.024 3.313,0.57 0.392,2.977 -3.052,1.409 -2.548,0.707 -0.578,0.053 z"
    />
  </g>
  
  <g transform="translate(176.5, 173.5)">  
    <path
       id="gear-4"
       class="gear"
       d="m 15.766,-2.174 2.509,-0.346 0.66,0.027 3.313,1.267 0,2.452 L 18.935,2.493 18.275,2.52 15.766,2.174 14.741,6 l 2.346,0.955 0.558,0.354 2.235,2.753 -1.226,2.124 -3.502,-0.56 -0.586,-0.306 -1.999,-1.554 -2.801,2.801 1.554,1.999 0.306,0.586 0.56,3.502 L 10.062,19.88 7.309,17.645 6.955,17.087 6,14.741 l -3.826,1.025 0.346,2.509 -0.027,0.66 -1.267,3.313 -2.452,0 -1.267,-3.313 -0.027,-0.66 0.346,-2.509 -3.826,-1.025 -0.955,2.346 -0.354,0.558 -2.753,2.235 -2.124,-1.226 0.56,-3.502 0.306,-0.586 1.554,-1.999 -2.801,-2.801 -1.999,1.554 -0.586,0.306 -3.502,0.56 -1.226,-2.124 2.235,-2.753 0.558,-0.354 2.346,-0.955 -1.025,-3.826 -2.509,0.346 -0.66,-0.027 -3.313,-1.267 0,-2.452 3.313,-1.267 0.66,-0.027 2.509,0.346 1.025,-3.826 -2.346,-0.955 -0.558,-0.354 -2.235,-2.753 1.226,-2.124 3.502,0.56 0.586,0.306 1.999,1.554 2.801,-2.801 -1.554,-1.999 -0.306,-0.586 -0.56,-3.502 2.124,-1.226 2.753,2.235 0.354,0.558 0.955,2.346 3.826,-1.025 -0.346,-2.509 0.027,-0.66 1.267,-3.313 2.452,0 1.267,3.313 0.027,0.66 -0.346,2.509 3.826,1.025 0.955,-2.346 0.354,-0.558 2.753,-2.235 2.124,1.226 -0.56,3.502 -0.306,0.586 -1.554,1.999 2.801,2.801 1.999,-1.554 0.586,-0.306 3.502,-0.56 1.226,2.124 -2.235,2.753 -0.558,0.354 L 14.741,-6 z"
    />
    <circle cx="0" cy="0" r="10" fill="white" stroke="#784f33"/>
  </g>

  <g transform="translate(-9.5, 106)">  
    <path
       id="gear-1"
       class="gear"
       d="M 59.5 9.9 L 56.09375 10.5 L 54.78125 16.0625 L 54.875 18.90625 L 55.5 21.15625 L 49.96875 23.15625 L 49.03125 21.03125 L 47.28125 18.78125 L 42.6875 15.375 L 39.6875 17.125 L 40.34375 22.78125 L 41.40625 25.4375 L 42.78125 27.3125 L 38.28125 31.09375 L 36.65625 29.4375 L 34.21875 27.9375 L 28.78125 26.28125 L 26.53125 28.9375 L 29.09375 34.03125 L 31 36.15625 L 32.9375 37.46875 L 29.96875 42.5625 L 27.875 41.5625 L 25.09375 40.96875 L 19.40625 41.28125 L 18.21875 44.5625 L 22.375 48.46875 L 24.875 49.8125 L 27.125 50.375 L 26.125 56.1875 L 23.78125 55.9375 L 20.96875 56.34375 L 15.75 58.59375 L 15.75 62.0625 L 20.96875 64.34375 L 23.78125 64.71875 L 26.125 64.5 L 27.125 70.28125 L 24.875 70.875 L 22.375 72.1875 L 18.21875 76.125 L 19.40625 79.375 L 25.09375 79.71875 L 27.875 79.125 L 29.96875 78.09375 L 32.9375 83.21875 L 31 84.5 L 29.09375 86.625 L 26.53125 91.71875 L 28.78125 94.375 L 34.21875 92.75 L 36.65625 91.25 L 38.28125 89.5625 L 42.78125 93.375 L 41.40625 95.25 L 40.34375 97.875 L 39.6875 103.5625 L 42.6875 105.28125 L 47.28125 101.875 L 49.03125 99.65625 L 49.96875 97.53125 L 55.5 99.53125 L 54.875 101.78125 L 54.78125 104.625 L 56.09375 110.15625 L 59.5 110.75 L 62.65625 106 L 63.53125 103.28125 L 63.6875 100.96875 L 69.59375 100.96875 L 69.75 103.28125 L 70.625 106 L 73.78125 110.75 L 77.1875 110.15625 L 78.5 104.625 L 78.40625 101.78125 L 77.78125 99.53125 L 83.3125 97.53125 L 84.25 99.65625 L 86 101.875 L 90.59375 105.28125 L 93.59375 103.5625 L 92.9375 97.875 L 91.875 95.25 L 90.5 93.375 L 95.03125 89.5625 L 96.65625 91.25 L 99.0625 92.75 L 104.53125 94.375 L 106.75 91.71875 L 104.1875 86.625 L 102.28125 84.5 L 100.375 83.21875 L 103.3125 78.09375 L 105.40625 79.125 L 108.1875 79.71875 L 113.875 79.375 L 115.0625 76.125 L 110.90625 72.1875 L 108.40625 70.875 L 106.15625 70.28125 L 107.1875 64.5 L 109.5 64.71875 L 112.3125 64.34375 L 117.53125 62.0625 L 117.53125 58.59375 L 112.3125 56.34375 L 109.5 55.9375 L 107.1875 56.1875 L 106.15625 50.375 L 108.40625 49.8125 L 110.90625 48.46875 L 115.0625 44.5625 L 113.875 41.28125 L 108.1875 40.96875 L 105.40625 41.5625 L 103.3125 42.5625 L 100.375 37.46875 L 102.28125 36.15625 L 104.1875 34.03125 L 106.75 28.9375 L 104.53125 26.28125 L 99.0625 27.9375 L 96.65625 29.4375 L 95.03125 31.09375 L 90.5 27.3125 L 91.875 25.4375 L 92.9375 22.78125 L 93.59375 17.125 L 90.59375 15.375 L 86 18.78125 L 84.25 21.03125 L 83.3125 23.15625 L 77.78125 21.15625 L 78.40625 18.90625 L 78.5 16.0625 L 77.1875 10.5 L 73.78125 9.90625 L 70.625 14.6875 L 69.75 17.375 L 69.59375 19.6875 L 63.6875 19.6875 L 63.53125 17.375 L 62.65625 14.6875 L 59.5 9.90625 z M 63.15625 26.53125 L 63.15625 47.28125 C 58.497767 48.520845 54.833345 52.185267 53.59375 56.84375 L 32.84375 56.84375 C 34.480897 40.866664 47.179164 28.168397 63.15625 26.53125 z M 70.15625 26.53125 C 86.133336 28.168397 98.831603 40.866664 100.46875 56.84375 L 79.6875 56.84375 C 78.451207 52.197675 74.797055 48.561686 70.15625 47.3125 L 70.15625 26.53125 z M 66.625 53.8125 C 70.214851 53.8125 73.125 56.722649 73.125 60.3125 C 73.125 63.902351 70.214851 66.8125 66.625 66.8125 C 63.035149 66.8125 60.125 63.902351 60.125 60.3125 C 60.125 56.722649 63.035149 53.8125 66.625 53.8125 z M 32.84375 63.84375 L 53.625 63.84375 C 54.874186 68.484555 58.510175 72.138707 63.15625 73.375 L 63.15625 94.15625 C 47.179164 92.519103 34.480897 79.820836 32.84375 63.84375 z M 79.65625 63.84375 L 100.46875 63.84375 C 98.831603 79.820836 86.133336 92.519103 70.15625 94.15625 L 70.15625 73.34375 C 74.784661 72.0979 78.4104 68.472161 79.65625 63.84375 z"
    />
  </g>
  
  <g transform="translate(132, 84)">
    <path
       id="gear-2"
       class="gear"
       d="m 55.842,-4.497 1.402,-0.113 3.741,0.613 5.198,2.175 0,3.644 -5.198,2.175 -3.741,0.613 -1.402,-0.113 -0.739,5.612 1.384,0.254 3.454,1.56 4.459,3.447 -0.943,3.519 -5.585,0.756 -3.771,-0.376 -1.326,-0.473 -2.166,5.231 1.271,0.603 2.933,2.401 3.414,4.483 -1.821,3.156 -5.59,-0.716 -3.546,-1.34 -1.158,-0.799 -3.446,4.491 1.072,0.912 2.211,3.078 2.138,5.214 -2.577,2.577 -5.214,-2.138 -3.078,-2.211 -0.912,-1.072 -4.491,3.446 0.799,1.158 1.34,3.546 0.716,5.59 -3.156,1.821 -4.483,-3.414 -2.401,-2.933 -0.603,-1.271 -5.231,2.166 0.473,1.326 0.376,3.771 -0.756,5.585 -3.519,0.943 -3.447,-4.459 -1.56,-3.454 -0.254,-1.384 -5.612,0.739 0.113,1.402 -0.613,3.741 -2.175,5.198 -3.644,0 -2.175,-5.198 -0.613,-3.741 0.113,-1.402 -5.612,-0.739 -0.254,1.384 -1.56,3.454 -3.447,4.459 -3.519,-0.943 -0.756,-5.585 0.376,-3.771 0.473,-1.326 -5.231,-2.166 -0.603,1.271 -2.401,2.933 -4.483,3.414 -3.156,-1.821 0.716,-5.59 1.34,-3.546 0.799,-1.158 -4.491,-3.446 -0.912,1.072 -3.078,2.211 -5.214,2.138 -2.577,-2.577 2.138,-5.214 2.211,-3.078 1.072,-0.912 -3.446,-4.491 -1.158,0.799 -3.546,1.34 -5.59,0.716 -1.821,-3.156 3.414,-4.483 2.933,-2.401 1.271,-0.603 -2.166,-5.231 -1.326,0.473 -3.771,0.376 -5.585,-0.756 -0.943,-3.519 4.459,-3.447 3.454,-1.56 1.384,-0.254 -0.739,-5.612 -1.402,0.113 -3.741,-0.613 -5.198,-2.175 0,-3.644 5.198,-2.175 3.741,-0.613 1.402,0.113 0.739,-5.612 -1.384,-0.254 -3.454,-1.56 -4.459,-3.447 0.943,-3.519 5.585,-0.756 3.771,0.376 1.326,0.473 2.166,-5.231 -1.271,-0.603 -2.933,-2.401 -3.414,-4.483 1.821,-3.156 5.59,0.716 3.546,1.34 1.158,0.799 3.446,-4.491 -1.072,-0.912 -2.211,-3.078 -2.138,-5.214 2.577,-2.577 5.214,2.138 3.078,2.211 0.912,1.072 4.491,-3.446 -0.799,-1.158 -1.34,-3.546 -0.716,-5.59 3.156,-1.821 4.483,3.414 2.401,2.933 0.603,1.271 5.231,-2.166 -0.473,-1.326 -0.376,-3.771 0.756,-5.585 3.519,-0.943 3.447,4.459 1.56,3.454 0.254,1.384 5.612,-0.739 -0.113,-1.402 0.613,-3.741 2.175,-5.198 3.644,0 2.175,5.198 0.613,3.741 -0.113,1.402 5.612,0.739 0.254,-1.384 1.56,-3.454 3.447,-4.459 3.519,0.943 0.756,5.585 -0.376,3.771 -0.473,1.326 5.231,2.166 0.603,-1.271 2.401,-2.933 4.483,-3.414 3.156,1.821 -0.716,5.59 -1.34,3.546 -0.799,1.158 4.491,3.446 0.912,-1.072 3.078,-2.211 5.214,-2.138 2.577,2.577 -2.138,5.214 -2.211,3.078 -1.072,0.912 3.446,4.491 1.158,-0.799 3.546,-1.34 5.59,-0.716 1.821,3.156 -3.414,4.483 -2.933,2.401 -1.271,0.603 2.166,5.231 1.326,-0.473 3.771,-0.376 5.585,0.756 0.943,3.519 -4.459,3.447 -3.454,1.56 -1.384,0.254 z"
    />
    <circle cx="0" cy="0" r="5" fill="white" stroke="#784f33"/>
  </g>
</svg>