<svg xmlns="http://www.w3.org/2000/svg" xmlns:xlink="http://www.w3.org/1999/xlink" viewBox="0 0 387 305">
    <g fill="none" stroke="#000000" stroke-width="4" stroke-linecap="round">
        <g id="Run_1_2_" opacity="0.8">
            <line x1="80.889" y1="28.445" x2="66.491" y2="28.445"/>
            <line x1="95.285" y1="28.455" x2="80.889" y2="28.445"/>
            <line x1="109.683" y1="34.382" x2="95.285" y2="28.455"/>
            <line x1="124.08" y1="35.122" x2="109.683" y2="34.382"/>
            <line x1="138.477" y1="35.122" x2="124.08" y2="35.122"/>
            <line x1="152.874" y1="35.825" x2="138.477" y2="35.122"/>
            <line x1="167.271" y1="68.867" x2="152.874" y2="35.825"/>
            <line x1="181.668" y1="82.196" x2="167.271" y2="68.867"/>
            <line x1="196.064" y1="121.712" x2="181.668" y2="82.196"/>
            <line x1="210.463" y1="129.708" x2="196.064" y2="121.712"/>
            <line x1="224.86" y1="158.877" x2="210.463" y2="129.708"/>
            <line x1="239.258" y1="202.269" x2="224.86" y2="158.877"/>
            <line x1="253.654" y1="210.788" x2="239.258" y2="202.269"/>
            <line x1="268.051" y1="222.591" x2="253.654" y2="210.788"/>
            <line x1="282.449" y1="241.261" x2="268.051" y2="222.591"/>
            <line x1="296.845" y1="247.24" x2="282.449" y2="241.261"/>
            <line x1="311.244" y1="250.715" x2="296.845" y2="247.24"/>
            <line x1="325.641" y1="253.471" x2="311.244" y2="250.715"/>
            <line x1="340.036" y1="255.213" x2="325.641" y2="253.471"/>
            <line x1="354.435" y1="256.717" x2="340.036" y2="255.213"/>
        </g>
        <g id="Run_2_2_" opacity="0.6">
            <line x1="80.889" y1="98.045" x2="66.491" y2="98.045"/>
            <line x1="95.285" y1="98.045" x2="80.889" y2="98.045"/>
            <line x1="109.683" y1="98.063" x2="95.285" y2="98.045"/>
            <line x1="124.08" y1="98.212" x2="109.683" y2="98.063"/>
            <line x1="138.477" y1="99.337" x2="124.08" y2="98.212"/>
            <line x1="152.874" y1="109.605" x2="138.477" y2="99.337"/>
            <line x1="167.271" y1="122.986" x2="152.874" y2="109.605"/>
            <line x1="181.668" y1="130.711" x2="167.271" y2="122.986"/>
            <line x1="196.064" y1="155.445" x2="181.668" y2="130.711"/>
            <line x1="210.463" y1="165.541" x2="196.064" y2="155.445"/>
            <line x1="224.86" y1="180.85" x2="210.463" y2="165.541"/>
            <line x1="239.258" y1="200.781" x2="224.86" y2="180.85"/>
            <line x1="253.654" y1="220.287" x2="239.258" y2="200.781"/>
            <line x1="268.051" y1="233.363" x2="253.654" y2="220.287"/>
            <line x1="282.449" y1="240.501" x2="268.051" y2="233.363"/>
            <line x1="296.845" y1="248.747" x2="282.449" y2="240.501"/>
            <line x1="311.244" y1="251.912" x2="296.845" y2="248.747"/>
            <line x1="325.641" y1="254.448" x2="311.244" y2="251.912"/>
            <line x1="340.036" y1="255.822" x2="325.641" y2="254.448"/>
            <line x1="354.435" y1="257.388" x2="340.036" y2="255.822"/>
        </g>
        <g id="Run_3_2_" opacity="0.4">
            <line x1="80.889" y1="55.68" x2="66.491" y2="55.681"/>
            <line x1="95.285" y1="55.68" x2="80.889" y2="55.68"/>
            <line x1="109.683" y1="58.602" x2="95.285" y2="55.68"/>
            <line x1="124.08" y1="58.782" x2="109.683" y2="58.602"/>
            <line x1="138.477" y1="61.795" x2="124.08" y2="58.782"/>
            <line x1="152.874" y1="72.128" x2="138.477" y2="61.795"/>
            <line x1="167.271" y1="72.705" x2="152.874" y2="72.128"/>
            <line x1="181.668" y1="98.505" x2="167.271" y2="72.705"/>
            <line x1="196.064" y1="115.484" x2="181.668" y2="98.505"/>
            <line x1="210.463" y1="127.261" x2="196.064" y2="115.484"/>
            <line x1="224.86" y1="167.229" x2="210.463" y2="127.261"/>
            <line x1="239.258" y1="203.267" x2="224.86" y2="167.229"/>
            <line x1="253.654" y1="224.676" x2="239.258" y2="203.267"/>
            <line x1="268.051" y1="236.318" x2="253.654" y2="224.676"/>
            <line x1="282.449" y1="240.746" x2="268.051" y2="236.318"/>
            <line x1="296.845" y1="246.183" x2="282.449" y2="240.746"/>
            <line x1="311.244" y1="248.97" x2="296.845" y2="246.183"/>
            <line x1="325.641" y1="253.359" x2="311.244" y2="248.97"/>
            <line x1="340.036" y1="255.484" x2="325.641" y2="253.359"/>
            <line x1="354.435" y1="256.348" x2="340.036" y2="255.484"/>
        </g>
        <g id="Run_4_2_" opacity="0.2" >
            <line x1="80.889" y1="37.714" x2="66.491" y2="37.714"/>
            <line x1="95.285" y1="37.738" x2="80.889" y2="37.714"/>
            <line x1="109.683" y1="38.248" x2="95.285" y2="37.738"/>
            <line x1="124.08" y1="38.474" x2="109.683" y2="38.248"/>
            <line x1="138.477" y1="44.848" x2="124.08" y2="38.474"/>
            <line x1="152.874" y1="47.636" x2="138.477" y2="44.848"/>
            <line x1="167.271" y1="55.799" x2="152.874" y2="47.636"/>
            <line x1="181.668" y1="86.93" x2="167.271" y2="55.799"/>
            <line x1="196.064" y1="128.204" x2="181.668" y2="86.93"/>
            <line x1="210.463" y1="138.721" x2="196.064" y2="128.204"/>
            <line x1="224.86" y1="153.251" x2="210.463" y2="138.721"/>
            <line x1="239.258" y1="184.653" x2="224.86" y2="153.251"/>
            <line x1="253.654" y1="219.214" x2="239.258" y2="184.653"/>
            <line x1="268.051" y1="227.973" x2="253.654" y2="219.214"/>
            <line x1="282.449" y1="244.814" x2="268.051" y2="227.973"/>
            <line x1="296.845" y1="249.65" x2="282.449" y2="244.814"/>
            <line x1="311.244" y1="252.182" x2="296.845" y2="249.65"/>
            <line x1="325.641" y1="255.36" x2="311.244" y2="252.182"/>
            <line x1="340.036" y1="256.521" x2="325.641" y2="255.36"/>
            <line x1="354.435" y1="257.341" x2="340.036" y2="256.521"/>
        </g>
    </g>
    <g stroke="black">
        <line x1="61" y1="265" x2="360.5" y2="265"/>
        <line x1="61" y1="265" x2="61" y2="15"/>
        <line x1="55.5" y1="265" x2="61.169" y2="265"/>
        <line x1="55.5" y1="229.286" x2="61.169" y2="229.286"/>
        <line x1="55.5" y1="193.572" x2="61.169" y2="193.572"/>
        <line x1="55.5" y1="157.857" x2="61.169" y2="157.857"/>
        <line x1="55.5" y1="122.144" x2="61.169" y2="122.144"/>
        <line x1="55.5" y1="86.428" x2="61.169" y2="86.428"/>
        <line x1="55.5" y1="50.714" x2="61.169" y2="50.714"/>
        <line x1="55.5" y1="15" x2="61.169" y2="15"/>
        <line x1="119.38" y1="270.331" x2="119.38" y2="264.833"/>
        <line x1="179.785" y1="270.442" x2="179.785" y2="264.944"/>
        <line x1="240.191" y1="270.554" x2="240.191" y2="265.056"/>
        <line x1="300.596" y1="270.665" x2="300.596" y2="265.167"/>
        <line x1="361" y1="270.22" x2="361" y2="264.722"/>
        <line x1="61" y1="271" x2="61" y2="265.502"/>
    </g>
    <text transform="matrix(0 -1 1 0 20 232)">Distance from target image</text>
    <text x="180" y="300">Generation</text>
    <g font-size="0.75rem">
        <text x="46" y="270">0</text>
        <text x="39" y="233">50</text>
        <text x="33" y="199">100</text>
        <text x="33" y="163">150</text>
        <text x="33" y="126">200</text>
        <text x="33" y="90">250</text>
        <text x="33" y="54">300</text>
        <text x="33" y="18">350</text>
        <text x="58" y="283">1</text>
        <text x="114" y="283">10</text>
        <text x="172" y="283">100</text>
        <text x="229" y="283">1000</text>
        <text x="285" y="283">10 000</text>
        <text x="342" y="283">100 000</text>
    </g>
</svg>