
<svg xmlns="http://www.w3.org/2000/svg" viewBox="0 0 388 313">
    
    <g stroke-width="4" stroke-linecap="round" fill="none" stroke="black">
        <g opacity="0.3">
            <line x1="77.917" y1="78.229" x2="59.167" y2="77.987"/>
            <line x1="96.667" y1="79.196" x2="77.917" y2="78.229"/>
            <line x1="115.417" y1="82.641" x2="96.667" y2="79.196"/>
            <line x1="134.167" y1="86.896" x2="115.417" y2="82.641"/>
            <line x1="152.917" y1="92.239" x2="134.167" y2="86.896"/>
            <line x1="171.667" y1="103.864" x2="152.917" y2="92.239"/>
            <line x1="190.417" y1="124.913" x2="171.667" y2="103.864"/>
            <line x1="209.167" y1="144.116" x2="190.417" y2="124.913"/>
            <line x1="227.917" y1="177.766" x2="209.167" y2="144.116"/>
            <line x1="246.667" y1="201.266" x2="227.917" y2="177.766"/>
            <line x1="265.417" y1="218.493" x2="246.667" y2="201.266"/>
            <line x1="284.167" y1="232.643" x2="265.417" y2="218.493"/>
            <line x1="302.917" y1="245.068" x2="284.167" y2="232.643"/>
            <line x1="321.667" y1="249.705" x2="302.917" y2="245.068"/>
            <line x1="340.417" y1="252.451" x2="321.667" y2="249.705"/>
            <line x1="359.167" y1="254.365" x2="340.417" y2="252.451"/>
        </g>
        <g opacity="0.6">
            <line x1="77.917" y1="45.829" x2="59.167" y2="45.349"/>
            <line x1="96.667" y1="50.243" x2="77.917" y2="45.829"/>
            <line x1="115.417" y1="52.34" x2="96.667" y2="50.243"/>
            <line x1="134.167" y1="56.713" x2="115.417" y2="52.34"/>
            <line x1="152.917" y1="70.801" x2="134.167" y2="56.713"/>
            <line x1="171.667" y1="101.769" x2="152.917" y2="70.801"/>
            <line x1="190.417" y1="136.957" x2="171.667" y2="101.769"/>
            <line x1="209.167" y1="170.475" x2="190.417" y2="136.957"/>
            <line x1="227.917" y1="195.755" x2="209.167" y2="170.475"/>
            <line x1="246.667" y1="220.59" x2="227.917" y2="195.755"/>
            <line x1="265.417" y1="234.893" x2="246.667" y2="220.59"/>
            <line x1="284.167" y1="242.509" x2="265.417" y2="234.893"/>
            <line x1="302.917" y1="247.967" x2="284.167" y2="242.509"/>
            <line x1="321.667" y1="252.671" x2="302.917" y2="247.967"/>
            <line x1="340.417" y1="255.277" x2="321.667" y2="252.671"/>
            <line x1="359.167" y1="256.764" x2="340.417" y2="255.277"/>
        </g>
        <g opacity="0.8">
            <line x1="77.917" y1="85.433" x2="59.167" y2="83.129"/>
            <line x1="96.667" y1="90.709" x2="77.917" y2="85.433"/>
            <line x1="115.417" y1="102.789" x2="96.667" y2="90.709"/>
            <line x1="134.167" y1="119.867" x2="115.417" y2="102.789"/>
            <line x1="152.917" y1="146.696" x2="134.167" y2="119.867"/>
            <line x1="171.667" y1="155.542" x2="152.917" y2="146.696"/>
            <line x1="190.417" y1="177.216" x2="171.667" y2="155.542"/>
            <line x1="209.167" y1="205.854" x2="190.417" y2="177.216"/>
            <line x1="227.917" y1="224.249" x2="209.167" y2="205.854"/>
            <line x1="246.667" y1="234.166" x2="227.917" y2="224.249"/>
            <line x1="265.417" y1="244.477" x2="246.667" y2="234.166"/>
            <line x1="284.167" y1="249.84" x2="265.417" y2="244.477"/>
            <line x1="302.917" y1="252.46" x2="284.167" y2="249.84"/>
            <line x1="321.667" y1="255.275" x2="302.917" y2="252.46"/>
            <line x1="340.417" y1="256.678" x2="321.667" y2="255.275"/>
            <line x1="359.167" y1="257.719" x2="340.417" y2="256.678"/>
        </g>
    </g>

    <rect x="50.167" y="38.375" fill="#FFFFFF" width="8.5" height="55.164"/>

    <g stroke="black">
        <line x1="59.167" y1="264.833" x2="359.167" y2="264.833"/>
        <line x1="59.167" y1="270.833" x2="59.167" y2="265.508"/>
        <line x1="133.764" y1="270.833" x2="133.764" y2="265.508"/>
        <line x1="209.029" y1="270.833" x2="209.029" y2="265.508"/>
        <line x1="284.295" y1="270.833" x2="284.295" y2="265.508"/>
        <line x1="359.167" y1="270.833" x2="359.167" y2="265.508"/>
        <line x1="59.167" y1="264.443" x2="59.167" y2="14.443"/>
        <line x1="53.667" y1="264.833" x2="59.336" y2="264.833"/>
        <line x1="53.667" y1="229.734" x2="59.336" y2="229.734"/>
        <line x1="53.667" y1="193.854" x2="59.336" y2="193.854"/>
        <line x1="53.667" y1="157.973" x2="59.336" y2="157.973"/>
        <line x1="53.667" y1="122.09" x2="59.336" y2="122.09"/>
        <line x1="53.667" y1="86.207" x2="59.336" y2="86.207"/>
        <line x1="53.667" y1="50.325" x2="59.336" y2="50.325"/>
        <line x1="53.667" y1="14.443" x2="59.336" y2="14.443"/>
    </g>
    
    <g font-size="0.75rem">
        <text x="44." y="270">0</text>
        <text x="37." y="234">50</text>
        <text x="31." y="198">100</text>
        <text x="31." y="162">150</text>
        <text x="31." y="127">200</text>
        <text x="31." y="91">250</text>
        <text x="31." y="55">300</text>
        <text x="31." y="19">350</text>
        <text x="52." y="284">10</text>
        <text x="340" y="284">100 000</text>
        <text x="124" y="284">100</text>
        <text x="197" y="284">1000</text>
        <text x="268" y="284">10 000</text>
    </g>
    <text x="102" y="173">128 circles</text>
    <text x="129" y="51">256 circles</text>
    <text x="240" y="185">384 circles</text>
    <text x="169" y="303">Generations</text>
    <text transform="matrix(0 -1 1 0 20.1914 229.9082)">Distance from target image</text>
</svg>